<svg xmlns="http://www.w3.org/2000/svg" viewBox="0 0 128 128" role="img" aria-label="Call">
  <defs><linearGradient id="g" x1="0" x2="1" y1="0" y2="1"><stop offset="0" stop-color="#22c55e"/><stop offset="1" stop-color="#00e5ff"/></linearGradient></defs>
  <rect width="128" height="128" rx="30" fill="#0f172a"/>
  <path d="M41 29c-5 1-12 9-13 16-3 22 31 56 53 53 8-1 16-8 18-13 1-3 0-6-3-8L82 68c-3-2-6-1-8 1l-5 6c-9-5-16-12-21-21l6-5c3-2 3-5 1-8l-8-13c-2-3-4-4-6-3Z" fill="url(#g)"/>
  <path d="M78 32c10 3 18 11 21 21M77 46c4 2 7 5 9 9" fill="none" stroke="#e0f2fe" stroke-width="6" stroke-linecap="round"/>
</svg>
